# xmcd
#
# Track frame offsets:
# 150
# 13439
# 28207
# 44842
# 58469
# 72915
# 87092
# 103637
# 120599
# 135185
# 162734
# 173708
# 186814
# 200058
# 213130
# 238272
# 270952
# 286823
# 301980
# 314995
#
# Disc length: 4393 seconds
#
#
# Revision: 1
# Processed by: cddbd v1.4PL0 Copyright (c) Steve Scherf et al.
# Submitted via: FreeRIP 2.52 
#
DISCID=33112714
DTITLE=Oscar peterson - Cheek To Cheek
DYEAR=1900
DGENRE=Jazz
TTITLE0=Fascinating rhythm
TTITLE1=Prelude to a kiss
TTITLE2=Just a-sittin' and a-rockin'
TTITLE3=Cheek to cheek
TTITLE4=It aint't necessarily so
TTITLE5=What is this thing called love
TTITLE6=Night and day
TTITLE7=Long ago and far away
TTITLE8=Easter parade
TTITLE9=Tea for two
TTITLE10=The song is you
TTITLE11=Blue moon
TTITLE12=Without a song
TTITLE13=The lady is a tramp
TTITLE14=I want to be happy
TTITLE15=Lover
TTITLE16=The man i love
TTITLE17=Somebody loves me
TTITLE18=I've got a crush on you
TTITLE19=Strike up the band
EXTD=
EXTT0=
EXTT1=
EXTT2=
EXTT3=
EXTT4=
EXTT5=
EXTT6=
EXTT7=
EXTT8=
EXTT9=
EXTT10=
EXTT11=
EXTT12=
EXTT13=
EXTT14=
EXTT15=
EXTT16=
EXTT17=
EXTT18=
EXTT19=
PLAYORDER=
